<?xml version="1.0" standalone="no"?>
<!DOCTYPE svg PUBLIC "-//W3C//DTD SVG 20010904//EN"
 "http://www.w3.org/TR/2001/REC-SVG-20010904/DTD/svg10.dtd">
<svg version="1.0" xmlns="http://www.w3.org/2000/svg"
 width="100.000000pt" height="100.000000pt" viewBox="0 0 100.000000 100.000000"
 preserveAspectRatio="xMidYMid meet">
<metadata>
Created by potrace 1.14, written by Peter Selinger 2001-2017
</metadata>
<g transform="translate(0.000000,100.000000) scale(0.100000,-0.100000)"
fill="#000000" stroke="none">
<path d="M465 952 c-57 -20 -126 -66 -159 -107 -36 -43 -81 -137 -71 -147 5
-5 13 -44 14 -67 1 -11 4 -12 12 -4 9 9 9 20 0 44 -14 40 -1 88 37 144 43 61
140 117 150 87 2 -7 8 -12 14 -12 6 0 7 7 4 16 -5 12 2 15 42 12 45 -3 47 -4
50 -36 2 -18 10 -44 17 -59 15 -29 10 -47 -11 -39 -17 7 -26 -7 -18 -29 4 -10
14 -15 25 -12 21 6 29 -10 22 -45 -3 -14 0 -29 6 -32 6 -4 11 -3 11 2 0 16 44
30 68 21 20 -8 22 -5 22 22 0 33 -32 82 -93 143 -43 43 -43 55 1 32 44 -23
111 -103 118 -143 4 -19 5 -98 2 -177 -4 -126 -7 -146 -27 -179 -12 -20 -27
-37 -32 -37 -5 0 -9 -7 -9 -15 0 -12 -7 -9 -27 10 -16 14 -36 28 -45 31 -10 3
-18 10 -18 15 0 15 -26 10 -40 -7 -10 -11 -23 -14 -51 -9 -29 5 -42 2 -56 -12
-10 -10 -24 -18 -30 -19 -26 -2 -30 -5 -41 -29 -8 -17 -8 -25 -1 -25 6 0 7 -4
4 -10 -3 -5 0 -10 7 -10 9 -1 9 -4 -3 -13 -8 -7 -20 -21 -27 -32 l-11 -20 -6
20 c-4 11 -11 29 -15 40 -5 11 -9 34 -9 52 0 17 -4 40 -10 51 -6 11 -8 21 -6
23 2 3 -2 38 -10 79 l-13 75 -1 -115 c-1 -204 54 -325 168 -365 148 -52 273
31 309 205 9 44 23 211 23 280 0 8 0 57 0 107 0 99 -9 127 -62 193 -15 20 -40
42 -56 50 -15 8 -35 19 -43 26 -8 6 -26 14 -40 17 -14 3 -34 8 -45 10 -11 3
-29 2 -40 -1z m-65 -642 c0 -5 -5 -10 -11 -10 -5 0 -7 5 -4 10 3 6 8 10 11 10
2 0 4 -4 4 -10z m166 -47 c-8 -17 -12 -19 -14 -7 -3 13 -14 15 -59 11 -30 -3
-57 -8 -60 -11 -4 -3 -1 -6 5 -6 6 0 10 -14 10 -31 -1 -20 -4 -26 -10 -17 -6
11 -10 11 -17 -1 -13 -20 -40 39 -30 66 7 18 16 20 96 20 l90 0 -11 -24z m34
-24 c0 -5 -7 -9 -15 -9 -15 0 -20 12 -9 23 8 8 24 -1 24 -14z m-242 -58 c-4
-19 -22 -18 -26 2 -2 7 4 14 13 14 9 0 15 -7 13 -16z m36 -6 c-4 -8 -1 -22 6
-30 6 -8 10 -20 7 -27 -4 -8 -6 -7 -6 5 -1 9 -5 17 -11 17 -11 0 -14 33 -3 43
10 11 13 8 7 -8z"/>
<path d="M440 710 c0 -5 5 -10 10 -10 6 0 10 5 10 10 0 6 -4 10 -10 10 -5 0
-10 -4 -10 -10z"/>
<path d="M516 635 c-4 -16 -11 -43 -15 -60 -10 -32 -9 -57 3 -94 6 -16 4 -26
-5 -32 -16 -9 -12 -14 19 -23 20 -7 22 -4 22 26 1 31 1 32 15 14 8 -11 15 -30
15 -42 0 -15 8 -24 25 -28 35 -9 49 2 29 21 -9 9 -13 25 -10 36 6 25 -10 47
-34 47 -10 0 -21 7 -24 16 -11 28 -6 36 10 20 22 -22 61 -30 87 -18 21 10 20
11 -13 18 l-35 8 35 6 c25 4 39 2 48 -9 11 -14 14 -14 22 -1 13 20 2 71 -18
92 -11 10 -36 18 -68 19 -55 3 -86 -8 -63 -22 11 -6 10 -12 -4 -27 -9 -10 -17
-24 -17 -31 0 -7 -5 -9 -10 -6 -6 4 -7 13 -2 23 5 9 5 31 2 47 l-7 30 -7 -30z
m165 -35 c10 -6 19 -18 19 -26 0 -13 -5 -12 -27 4 -16 11 -37 22 -48 25 -15 3
-13 5 8 6 16 0 37 -4 48 -9z"/>
<path d="M467 630 c3 -11 9 -20 14 -20 5 0 9 9 9 20 0 11 -6 20 -14 20 -9 0
-12 -7 -9 -20z"/>
<path d="M330 619 c-20 -17 -21 -19 -5 -13 11 4 35 7 53 6 17 -1 32 2 32 7 0
5 10 12 23 14 12 2 0 5 -28 5 -37 1 -56 -4 -75 -19z"/>
<path d="M251 594 c0 -11 3 -14 6 -6 3 7 2 16 -1 19 -3 4 -6 -2 -5 -13z"/>
<path d="M378 593 c-19 -5 -25 -23 -7 -23 5 0 8 -4 5 -9 -3 -5 4 -11 15 -14
12 -3 18 -10 14 -16 -3 -6 -2 -11 4 -11 19 0 33 38 21 60 -11 20 -19 22 -52
13z"/>
<path d="M325 570 c-3 -5 1 -10 9 -10 9 0 16 5 16 10 0 6 -4 10 -9 10 -6 0
-13 -4 -16 -10z"/>
<path d="M384 432 c-17 -11 -25 -52 -8 -45 20 7 48 53 32 53 -7 0 -18 -4 -24
-8z"/>
<path d="M308 279 c6 -7 12 -22 12 -33 0 -17 2 -18 10 -6 14 21 13 23 -12 39
-18 10 -20 11 -10 0z"/>
<path d="M690 116 c0 -8 5 -18 10 -21 6 -3 10 1 10 9 0 8 -4 18 -10 21 -5 3
-10 -1 -10 -9z"/>
<path d="M718 78 c-2 -26 -7 -33 -23 -31 -11 2 -33 -9 -50 -22 l-30 -25 58 0
c56 0 58 1 64 30 7 39 21 39 15 0 -2 -17 0 -30 6 -30 15 0 27 22 24 43 -2 9 2
17 7 17 10 0 15 -20 12 -47 -1 -7 13 -12 38 -11 33 0 40 4 44 24 3 20 -2 25
-47 39 -27 9 -59 23 -70 31 -32 22 -44 17 -48 -18z"/>
<path d="M220 35 c0 -15 18 -40 24 -34 3 3 -1 14 -9 25 -8 10 -14 15 -15 9z"/>
<path d="M180 15 l-25 -14 26 -1 c16 0 26 5 26 15 0 8 -1 15 -1 15 -1 -1 -12
-7 -26 -15z"/>
<path d="M920 22 c0 -5 7 -13 16 -16 10 -4 14 -1 12 6 -5 15 -28 23 -28 10z"/>
</g>
</svg>
